<svg width="48" height="48" viewBox="0 0 48 48" fill="none" xmlns="http://www.w3.org/2000/svg">
<path d="M0 24C0 10.7452 10.7452 0 24 0V0C37.2548 0 48 10.7452 48 24V24C48 37.2548 37.2548 48 24 48V48C10.7452 48 0 37.2548 0 24V24Z" fill="#DCFCE7"/>
<path d="M22.2603 33C22.4358 33.304 22.6883 33.5565 22.9923 33.732C23.2963 33.9075 23.6412 33.9999 23.9923 33.9999C24.3433 33.9999 24.6882 33.9075 24.9922 33.732C25.2962 33.5565 25.5487 33.304 25.7243 33" stroke="#00A63E" stroke-width="2" stroke-linecap="round" stroke-linejoin="round"/>
<path d="M15.2539 27.326C15.1233 27.4692 15.0371 27.6472 15.0058 27.8385C14.9745 28.0298 14.9995 28.226 15.0777 28.4034C15.1558 28.5807 15.2839 28.7316 15.4462 28.8375C15.6085 28.9434 15.7981 28.9999 15.9919 29H31.9919C32.1857 29.0001 32.3754 28.9438 32.5378 28.8381C32.7002 28.7324 32.8284 28.5817 32.9068 28.4045C32.9852 28.2273 33.0104 28.0311 32.9794 27.8398C32.9483 27.6485 32.8624 27.4703 32.7319 27.327C31.4019 25.956 29.9919 24.499 29.9919 20C29.9919 18.4087 29.3598 16.8826 28.2346 15.7574C27.1094 14.6321 25.5832 14 23.9919 14C22.4006 14 20.8745 14.6321 19.7493 15.7574C18.6241 16.8826 17.9919 18.4087 17.9919 20C17.9919 24.499 16.5809 25.956 15.2539 27.326Z" stroke="#00A63E" stroke-width="2" stroke-linecap="round" stroke-linejoin="round"/>
</svg>
