<svg width="48" height="48" viewBox="0 0 48 48" fill="none" xmlns="http://www.w3.org/2000/svg">
<path d="M0 24C0 10.7452 10.7452 0 24 0V0C37.2548 0 48 10.7452 48 24V24C48 37.2548 37.2548 48 24 48V48C10.7452 48 0 37.2548 0 24V24Z" fill="#F3F4F6"/>
<path d="M22.2681 33C22.4436 33.304 22.6961 33.5565 23.0001 33.732C23.3041 33.9075 23.649 33.9999 24.0001 33.9999C24.3511 33.9999 24.696 33.9075 25 33.732C25.3041 33.5565 25.5565 33.304 25.7321 33" stroke="#99A1AF" stroke-width="2" stroke-linecap="round" stroke-linejoin="round"/>
<path d="M28.9999 29.0001H15.9999C15.8061 29.0001 15.6164 28.9439 15.454 28.8382C15.2916 28.7324 15.1634 28.5818 15.085 28.4046C15.0066 28.2273 14.9814 28.0311 15.0124 27.8398C15.0435 27.6486 15.1294 27.4704 15.2599 27.3271C16.5899 25.9561 17.9999 24.4991 17.9999 20.0001C17.9997 19.4099 18.0867 18.8229 18.2579 18.2581" stroke="#99A1AF" stroke-width="2" stroke-linecap="round" stroke-linejoin="round"/>
<path d="M14 14L34 34" stroke="#99A1AF" stroke-width="2" stroke-linecap="round" stroke-linejoin="round"/>
<path d="M20.668 15.01C21.5715 14.4067 22.6218 14.06 23.7069 14.0069C24.792 13.9539 25.8712 14.1964 26.8292 14.7087C27.7872 15.221 28.5882 15.9838 29.1466 16.9157C29.7051 17.8476 30 18.9136 30 20C30 22.687 30.77 24.653 31.707 26.05" stroke="#99A1AF" stroke-width="2" stroke-linecap="round" stroke-linejoin="round"/>
</svg>
