<svg width="48" height="48" viewBox="0 0 48 48" fill="none" xmlns="http://www.w3.org/2000/svg">
<path d="M0 24C0 10.7452 10.7452 0 24 0C37.2548 0 48 10.7452 48 24C48 37.2548 37.2548 48 24 48C10.7452 48 0 37.2548 0 24Z" fill="#0064FF" fill-opacity="0.1"/>
<path d="M22.2681 33C22.4436 33.304 22.6961 33.5565 23.0001 33.732C23.3041 33.9075 23.649 33.9999 24.0001 33.9999C24.3511 33.9999 24.696 33.9075 25 33.732C25.3041 33.5565 25.5565 33.304 25.7321 33" stroke="#0064FF" stroke-width="2" stroke-linecap="round" stroke-linejoin="round"/>
<path d="M15.2618 27.326C15.1311 27.4692 15.0449 27.6472 15.0136 27.8385C14.9823 28.0298 15.0073 28.226 15.0855 28.4034C15.1637 28.5807 15.2917 28.7316 15.454 28.8375C15.6163 28.9434 15.8059 28.9999 15.9998 29H31.9998C32.1936 29.0001 32.3832 28.9438 32.5456 28.8381C32.708 28.7324 32.8363 28.5817 32.9146 28.4045C32.993 28.2273 33.0182 28.0311 32.9872 27.8398C32.9561 27.6485 32.8702 27.4703 32.7398 27.327C31.4098 25.956 29.9998 24.499 29.9998 20C29.9998 18.4087 29.3676 16.8826 28.2424 15.7574C27.1172 14.6321 25.5911 14 23.9998 14C22.4085 14 20.8823 14.6321 19.7571 15.7574C18.6319 16.8826 17.9998 18.4087 17.9998 20C17.9998 24.499 16.5888 25.956 15.2618 27.326Z" stroke="#0064FF" stroke-width="2" stroke-linecap="round" stroke-linejoin="round"/>
</svg>
