<svg xmlns="http://www.w3.org/2000/svg" viewBox="0 0 2048 2058" width="2048" height="2058" role="img" aria-label="FinSwipe dolphin logo">
  <defs>
    <linearGradient id="finGrad" x1="0.05" y1="1" x2="0.95" y2="0">
      <stop offset="0" stop-color="#1a6fa8"/>
      <stop offset="0.45" stop-color="#1e8fa8"/>
      <stop offset="0.75" stop-color="#2aab96"/>
      <stop offset="1" stop-color="#3abf8a"/>
    </linearGradient>
  </defs>
  <g transform="translate(0,2058) scale(0.1,-0.1)" fill="url(#finGrad)" stroke="none">
      <path d="M10910 18493 c-336 -13 -578 -27 -695 -38 -201 -20 -406 -44 -435
-51 -14 -3 -79 -14 -145 -25 -272 -43 -412 -73 -740 -159 -60 -15 -130 -32
-155 -35 -47 -8 -254 -78 -755 -258 -78 -28 -132 -52 -315 -139 -69 -33 -179
-85 -245 -115 -66 -30 -158 -77 -205 -103 -47 -26 -148 -82 -225 -125 -331
-183 -606 -360 -897 -576 -149 -111 -347 -270 -373 -299 -11 -12 -49 -45 -85
-73 -136 -107 -229 -193 -495 -454 -149 -146 -452 -474 -498 -537 -23 -33 -67
-87 -97 -121 -109 -121 -495 -648 -537 -735 -27 -54 -83 -149 -158 -265 -21
-33 -57 -96 -81 -140 -23 -44 -76 -143 -119 -220 -106 -191 -145 -267 -179
-353 -16 -40 -44 -98 -63 -130 -46 -75 -117 -234 -158 -352 -18 -52 -52 -140
-75 -195 -23 -55 -51 -129 -62 -165 -12 -36 -43 -132 -69 -215 -26 -82 -60
-181 -74 -220 -32 -84 -81 -271 -100 -380 -17 -94 -72 -331 -80 -344 -9 -15
-26 -108 -39 -216 -12 -93 -27 -177 -61 -350 -8 -38 -17 -128 -20 -200 -7
-146 -17 -271 -34 -425 -9 -79 -9 -200 0 -505 7 -220 13 -443 14 -495 2 -121
24 -366 37 -405 14 -46 58 -333 58 -384 0 -25 7 -68 16 -96 18 -60 41 -176 59
-307 7 -54 22 -126 33 -160 11 -35 34 -106 50 -158 17 -52 49 -165 72 -250 52
-190 94 -323 133 -415 16 -38 46 -117 67 -175 71 -195 131 -344 150 -374 10
-17 29 -58 41 -91 12 -33 44 -100 71 -148 27 -49 58 -112 69 -140 28 -71 100
-204 169 -312 31 -49 85 -139 120 -200 34 -60 118 -194 186 -296 67 -103 134
-208 147 -235 14 -27 69 -101 123 -164 189 -225 203 -255 180 -398 -10 -59
-24 -145 -31 -190 -8 -46 -18 -98 -24 -115 -5 -18 -17 -67 -26 -110 -9 -43
-28 -110 -41 -149 -14 -39 -29 -89 -33 -112 -5 -23 -26 -104 -46 -181 -21 -77
-41 -156 -45 -175 -25 -117 -64 -301 -87 -405 -14 -66 -38 -160 -53 -210 -47
-152 -100 -358 -100 -390 0 -38 -130 -591 -175 -745 -45 -153 -65 -233 -127
-505 -11 -49 -26 -113 -34 -141 -29 -106 -13 -136 64 -115 26 8 66 17 89 22
23 4 64 19 90 32 51 25 265 103 503 182 80 26 179 63 220 82 97 45 134 58 249
89 53 14 110 34 127 45 40 25 328 129 357 129 12 0 36 7 52 16 56 29 240 102
360 143 66 22 181 63 255 91 74 28 180 64 235 80 55 16 152 50 215 75 218 89
345 136 410 151 36 9 79 24 96 35 18 10 101 44 185 75 174 63 172 63 293 5 45
-21 144 -67 221 -101 77 -34 145 -66 150 -70 15 -12 184 -77 300 -115 55 -18
204 -69 330 -113 303 -105 311 -108 375 -120 30 -7 125 -30 210 -53 85 -23
180 -47 210 -54 30 -7 80 -19 110 -28 30 -8 91 -20 135 -27 155 -23 371 -61
431 -75 34 -9 117 -20 186 -25 68 -5 163 -16 210 -24 90 -16 531 -31 878 -31
465 1 702 17 1080 75 36 5 88 12 115 15 98 12 367 56 388 64 12 5 47 12 77 16
30 4 82 15 115 25 33 10 159 44 280 75 121 31 292 81 380 110 88 29 201 66
250 81 140 43 611 237 805 331 152 73 538 278 643 340 141 83 579 375 682 453
145 110 328 258 440 354 61 53 135 114 165 137 72 54 579 565 695 699 50 58
126 145 169 195 81 92 105 123 308 394 166 221 411 587 475 711 22 41 66 120
98 175 224 384 516 1036 659 1470 36 110 77 234 91 275 14 41 39 134 56 205
16 72 38 160 49 196 11 36 20 74 20 84 0 10 9 57 20 104 60 257 126 668 170
1051 41 359 33 1274 -14 1620 -8 63 -25 192 -36 285 -12 94 -27 202 -35 240
-7 39 -16 95 -20 125 -4 30 -15 89 -25 130 -11 41 -24 100 -29 130 -18 96 -77
329 -126 495 -27 88 -57 191 -67 229 -11 38 -21 73 -24 78 -3 4 -29 76 -59
160 -183 519 -381 963 -617 1383 -128 228 -515 828 -610 945 -25 30 -97 120
-161 200 -64 80 -141 174 -171 210 -31 36 -81 97 -113 135 -90 111 -624 640
-775 769 -178 151 -308 258 -399 326 -40 30 -100 78 -133 105 -146 121 -491
343 -953 614 -67 39 -133 75 -147 81 -13 5 -58 29 -100 55 -41 25 -77 45 -80
45 -4 0 -61 26 -129 59 -405 195 -998 413 -1382 509 -66 17 -201 51 -300 77
-99 25 -234 55 -300 65 -573 91 -631 97 -1216 135 -219 14 -292 15 -459 8z
m477 -1068 c131 -8 288 -20 348 -26 61 -5 157 -14 215 -20 58 -5 119 -13 135
-19 17 -5 62 -12 100 -15 39 -4 97 -13 130 -20 33 -8 83 -17 110 -20 28 -4
111 -22 185 -42 74 -19 162 -40 195 -48 33 -7 105 -25 160 -40 55 -15 117 -31
137 -36 20 -5 61 -18 90 -30 61 -24 181 -68 393 -144 185 -66 543 -217 580
-245 6 -4 57 -32 115 -62 397 -207 425 -224 650 -374 387 -259 626 -442 910
-698 290 -262 648 -636 786 -822 37 -49 81 -105 98 -124 71 -80 506 -694 506
-715 0 -2 41 -72 91 -157 113 -189 354 -661 421 -823 156 -379 271 -702 313
-880 13 -55 31 -119 39 -141 55 -157 163 -690 191 -950 9 -76 18 -146 20 -154
2 -8 9 -85 15 -170 5 -85 14 -227 20 -316 11 -172 -1 -728 -20 -879 -10 -80
-19 -149 -45 -345 -19 -147 -42 -269 -72 -380 -14 -52 -36 -142 -49 -200 -14
-58 -59 -206 -101 -330 -212 -627 -463 -1085 -930 -1697 -91 -119 -407 -458
-526 -564 -45 -41 -134 -121 -198 -179 -63 -58 -146 -127 -183 -155 -407 -300
-557 -398 -816 -529 -351 -179 -522 -242 -950 -354 -635 -166 -1361 -135
-1850 80 -513 225 -848 584 -934 1001 -60 291 39 600 256 795 276 249 626 266
883 43 102 -88 128 -100 163 -75 39 29 100 157 117 248 37 195 -2 428 -103
616 -195 361 -395 510 -827 617 -100 25 -514 25 -630 1 -44 -10 -113 -24 -154
-33 -139 -30 -390 -140 -599 -264 -174 -103 -426 -330 -567 -510 -97 -124
-165 -216 -165 -225 0 -4 -16 -34 -35 -66 -46 -75 -91 -180 -135 -315 -24 -72
-41 -110 -51 -110 -54 0 17 306 148 640 45 113 160 310 243 412 194 242 513
496 770 615 171 78 208 104 183 129 -14 14 -92 -1 -218 -41 -49 -16 -147 -47
-216 -70 -69 -22 -131 -40 -138 -40 -94 0 -735 -341 -962 -511 -134 -100 -164
-125 -246 -201 -198 -186 -351 -359 -454 -513 -29 -44 -73 -107 -97 -140 -24
-33 -61 -96 -82 -140 -20 -45 -66 -132 -102 -195 -61 -108 -132 -280 -191
-465 -14 -44 -47 -138 -72 -210 -26 -71 -53 -159 -61 -195 -9 -36 -22 -88 -30
-116 -8 -28 -20 -93 -28 -145 -20 -132 -47 -283 -52 -290 -7 -12 -43 -366 -55
-539 -13 -201 0 -550 25 -660 8 -36 24 -130 36 -210 12 -80 25 -167 31 -193
13 -67 12 -77 -9 -77 -35 0 -162 391 -162 497 0 19 -7 87 -15 151 -7 64 -16
247 -19 406 l-5 289 -26 27 c-17 18 -52 35 -103 50 -42 12 -108 37 -147 55
-38 18 -88 38 -110 45 -35 11 -103 48 -204 112 -47 30 -68 19 -198 -103 -190
-178 -329 -282 -473 -351 -57 -27 -145 -76 -195 -108 -112 -72 -253 -149 -426
-234 -74 -36 -170 -86 -214 -111 -182 -103 -213 -83 -274 171 -16 65 -37 153
-47 194 -26 102 -26 422 -1 489 10 24 17 55 17 70 0 14 14 82 31 151 17 69 34
148 39 176 8 51 151 362 222 484 49 83 49 84 -21 220 -52 102 -87 176 -191
410 -50 111 -110 282 -130 365 -49 216 -90 383 -99 408 -6 16 -11 46 -11 68 0
21 -8 83 -17 137 -25 145 -26 790 -1 877 9 33 24 107 33 165 45 311 84 459
159 608 24 48 54 120 67 161 35 107 62 108 94 1 39 -129 151 -208 278 -196 85
8 131 28 213 95 103 86 202 240 264 414 83 233 48 558 -76 696 -68 76 -118 96
-239 96 -184 -1 -294 -61 -455 -249 -140 -164 -204 -271 -310 -522 -23 -55
-55 -124 -70 -154 -16 -30 -36 -82 -45 -115 -9 -33 -43 -143 -76 -245 -59
-184 -66 -218 -114 -530 -14 -91 -31 -192 -38 -225 -8 -42 -12 -186 -11 -485
1 -457 4 -496 59 -748 38 -175 23 -196 -61 -84 -171 224 -305 434 -359 562
-18 41 -47 107 -64 145 -99 216 -113 253 -161 421 -16 55 -38 124 -49 152 -11
28 -32 113 -47 189 -25 134 -30 171 -54 428 -6 66 -15 139 -21 163 -19 84 -28
314 -18 467 25 388 28 410 58 528 52 199 186 447 241 447 11 0 27 -11 36 -25
18 -28 0 -192 -36 -308 -57 -187 -40 -677 23 -677 24 0 34 22 47 100 12 74 30
149 71 285 11 39 25 88 30 110 6 22 17 63 26 90 9 28 21 75 28 105 7 30 22 91
34 135 54 202 45 312 -34 391 -107 107 -266 67 -410 -102 -87 -103 -186 -315
-200 -429 -4 -33 -14 -77 -21 -98 -22 -61 -47 -214 -50 -307 -2 -47 -8 -143
-14 -215 -13 -158 -13 -433 0 -495 8 -39 18 -132 46 -409 3 -30 10 -66 16 -80
10 -26 28 -104 69 -291 38 -178 71 -274 216 -634 35 -88 72 -171 83 -186 23
-32 160 -314 160 -329 0 -65 -169 112 -322 338 -18 25 -50 69 -73 96 -54 64
-111 155 -132 208 -9 23 -42 87 -74 142 -55 95 -179 378 -179 407 0 8 -18 68
-39 134 -54 165 -73 232 -81 284 -4 25 -15 74 -23 110 -68 283 -87 400 -98
595 -4 88 -16 256 -25 374 -15 189 -15 242 -3 455 7 133 13 255 12 271 -1 69
28 364 41 405 8 25 17 77 20 115 3 39 13 101 21 140 8 38 15 91 15 116 0 25
16 108 35 183 19 76 35 150 35 165 0 35 83 352 110 421 12 30 51 149 86 265
36 115 85 260 109 320 24 61 60 153 80 205 38 101 208 445 269 545 20 33 36
63 36 68 0 9 120 221 165 292 17 28 65 106 106 175 41 69 89 141 107 161 18
21 55 75 82 122 138 240 698 915 912 1099 34 29 94 86 132 127 84 87 232 217
323 283 35 25 88 68 116 95 115 107 616 460 756 532 24 12 96 55 160 95 64 40
193 110 286 155 94 46 231 114 305 151 74 37 174 81 222 98 47 17 109 42 137
56 60 31 278 109 451 161 69 21 186 58 260 82 74 23 178 52 230 63 52 11 120
27 150 35 84 22 325 65 368 65 21 0 62 6 92 14 30 8 84 17 120 20 36 4 103 13
150 22 220 40 771 53 1157 29z m-5166 -7351 c16 -20 -2 -56 -43 -87 -33 -24
-58 -11 -58 31 0 54 70 93 101 56z m107 -199 c45 -57 27 -191 -45 -335 -53
-105 -106 -140 -154 -101 -22 18 -24 27 -23 98 4 214 148 433 222 338z m3418
-4666 c3 -6 10 -41 15 -78 4 -36 15 -122 23 -191 9 -70 32 -180 52 -250 20
-69 40 -143 45 -165 15 -76 70 -248 93 -294 13 -25 27 -57 31 -71 4 -14 43
-101 87 -194 106 -227 311 -529 493 -727 44 -48 117 -127 163 -177 45 -50 112
-115 150 -146 37 -30 109 -89 160 -131 89 -73 112 -99 98 -112 -16 -17 -299
157 -392 240 -28 25 -83 70 -123 101 -142 107 -395 400 -501 581 -29 50 -81
137 -116 195 -68 115 -137 270 -154 345 -6 26 -17 60 -25 75 -23 44 -72 227
-84 310 -43 304 -67 671 -44 693 10 10 21 8 29 -4z"/>
      <path d="M13550 15825 c-113 -7 -232 -17 -265 -23 -33 -6 -89 -14 -125 -17
-36 -4 -90 -13 -120 -20 -30 -7 -102 -23 -160 -35 -288 -57 -752 -210 -1159
-381 -198 -84 -678 -313 -761 -364 -19 -12 -132 -72 -250 -133 -118 -61 -267
-137 -330 -170 -76 -40 -150 -70 -220 -89 l-105 -28 -270 4 c-465 7 -627 5
-735 -7 -189 -20 -354 -42 -395 -51 -22 -5 -76 -17 -120 -26 -82 -18 -345
-100 -493 -154 -45 -17 -136 -60 -201 -96 -65 -36 -140 -75 -167 -86 -182 -80
-474 -361 -474 -456 0 -34 46 -64 89 -57 20 3 106 1 191 -5 200 -13 442 -82
545 -156 135 -96 262 -237 333 -371 28 -53 92 -334 92 -404 0 -88 -26 -142
-163 -345 -187 -275 -240 -358 -310 -485 -44 -80 -98 -176 -122 -215 -125
-209 -246 -474 -376 -825 -23 -63 -67 -176 -97 -250 -30 -74 -65 -173 -78
-220 -13 -47 -39 -132 -58 -190 -63 -196 -79 -255 -92 -330 -7 -41 -31 -149
-53 -240 -59 -249 -59 -247 -81 -366 -11 -60 -20 -132 -20 -160 0 -62 -27
-342 -40 -414 -17 -99 -15 -920 4 -1035 8 -55 20 -152 26 -215 6 -63 15 -158
20 -210 14 -140 38 -309 50 -354 17 -56 6 -94 -45 -156 -25 -30 -45 -58 -45
-62 0 -4 -24 -25 -52 -46 -29 -22 -111 -97 -183 -167 -71 -70 -152 -146 -180
-167 -53 -43 -126 -121 -165 -178 -13 -19 -47 -64 -76 -100 -123 -156 -243
-351 -300 -488 -66 -158 -149 -536 -159 -722 -10 -171 40 -407 90 -426 16 -7
162 62 265 124 41 25 136 75 210 112 168 83 204 103 363 207 70 46 131 83 135
83 23 1 127 94 246 220 76 80 150 151 166 159 31 15 17 20 173 -64 48 -26 114
-55 145 -65 31 -10 129 -48 217 -85 181 -76 203 -82 228 -63 18 14 47 117 68
238 5 30 25 111 44 180 139 485 150 534 137 598 -6 30 -36 104 -67 164 -54
107 -55 112 -55 193 0 90 9 105 58 105 32 0 78 63 139 187 31 64 84 157 118
207 34 50 72 110 84 133 30 59 121 200 206 318 39 55 116 163 170 240 54 77
151 196 215 265 64 69 131 145 147 170 17 25 54 67 82 95 53 51 62 71 36 81
-8 3 -84 -31 -169 -75 -144 -76 -196 -95 -196 -72 0 18 300 215 415 273 356
179 413 244 426 491 9 167 23 219 102 369 120 231 357 526 667 832 100 99 173
180 194 215 18 31 49 78 68 103 20 26 56 88 81 140 106 219 112 239 75 261
-18 12 -2 21 -264 -160 -78 -54 -196 -135 -262 -181 -67 -46 -165 -122 -219
-170 -54 -48 -125 -107 -158 -132 -71 -52 -403 -385 -525 -525 -47 -54 -118
-134 -158 -179 -88 -98 -277 -347 -357 -471 -32 -49 -95 -146 -140 -215 -156
-239 -212 -338 -284 -502 -33 -75 -80 -176 -104 -225 -128 -257 -292 -736
-352 -1030 -8 -39 -31 -61 -47 -45 -7 7 -7 28 1 74 6 35 18 108 27 163 9 54
26 129 38 165 12 36 33 110 45 165 13 55 41 146 62 203 22 56 39 106 39 111 0
5 13 43 30 84 16 42 37 104 46 139 22 85 127 321 169 377 18 26 44 74 58 108
14 35 35 76 46 91 11 16 47 83 80 148 76 152 153 266 376 561 275 365 398 499
709 773 66 58 144 130 175 161 31 31 84 75 118 98 34 22 65 45 68 51 5 9 82
68 325 251 94 70 202 139 277 177 32 17 96 53 142 81 139 84 162 71 130 -75
-11 -55 -24 -115 -29 -134 -11 -53 -58 -204 -95 -305 -18 -49 -48 -137 -66
-194 -18 -57 -47 -132 -64 -165 -53 -102 -122 -313 -109 -334 19 -27 117 -19
217 19 174 67 520 248 687 360 47 31 101 64 120 74 42 21 83 51 171 125 68 56
105 85 244 188 131 98 514 484 554 561 14 25 77 54 101 46 68 -21 159 -280
191 -538 10 -89 24 -192 29 -229 13 -84 12 -307 -1 -373 -5 -27 -16 -101 -24
-164 -8 -63 -17 -128 -21 -145 -4 -24 0 -36 15 -50 23 -21 44 -16 112 25 25
16 50 29 56 29 10 0 68 46 231 187 105 91 148 140 339 383 63 81 144 218 195
330 22 47 52 110 67 140 52 100 129 323 166 480 20 85 46 191 56 235 63 267
94 620 87 987 -5 222 -4 228 17 248 27 26 210 124 261 140 21 6 131 57 244
111 113 54 257 119 320 143 63 25 198 79 300 121 102 42 221 89 265 104 438
154 786 370 895 554 64 109 107 337 77 409 -21 49 -82 114 -136 145 -25 14
-62 36 -82 49 -83 52 -245 94 -518 134 -238 35 -232 31 -286 172 -22 58 -47
116 -56 129 -9 13 -28 48 -43 76 -156 310 -468 609 -807 778 -386 191 -813
263 -1359 230z"/>
      <path d="M6180 11826 c-147 -42 -202 -92 -373 -335 -83 -119 -191 -339 -237
-486 -7 -22 -20 -58 -30 -80 -10 -22 -24 -76 -31 -119 -11 -74 -11 -80 6 -93
30 -21 49 6 120 171 35 81 74 164 88 184 13 21 35 58 47 82 77 152 255 380
296 380 32 0 25 -31 -17 -85 -24 -31 -61 -77 -81 -103 -104 -131 -155 -229
-137 -264 14 -26 29 -22 74 21 22 21 86 76 142 122 56 46 132 109 168 139 114
93 185 208 185 300 0 133 -92 203 -220 166z"/>
      <path d="M11840 9114 c-47 -7 -98 -13 -115 -14 -38 0 -394 -110 -494 -151
-236 -98 -523 -275 -641 -393 -101 -103 -47 -112 112 -20 59 34 190 94 205 94
4 0 29 11 55 25 205 109 567 177 778 146 41 -6 135 -20 208 -31 316 -48 437
-9 437 141 0 169 -228 254 -545 203z"/>
      <path d="M14130 9045 c-196 -23 -331 -52 -500 -107 -187 -60 -400 -171 -400
-208 0 -28 18 -29 100 -2 169 54 219 66 490 114 123 22 563 18 670 -6 184 -41
337 -102 360 -145 34 -64 -111 -88 -310 -53 -226 40 -292 45 -507 39 -187 -6
-293 -18 -356 -43 -11 -4 -17 -15 -15 -28 3 -18 12 -22 73 -28 39 -4 88 -11
110 -17 22 -6 74 -15 115 -22 41 -6 120 -24 175 -39 55 -16 145 -40 200 -55
138 -38 225 -62 325 -90 123 -35 230 -50 355 -50 172 1 250 39 304 147 46 91
39 144 -31 255 -165 261 -640 400 -1158 338z"/>
      <path d="M11740 8576 c-226 -22 -260 -56 -69 -69 289 -19 527 -66 695 -137 86
-37 322 -180 429 -261 28 -21 95 -72 150 -114 150 -115 189 -98 117 50 -188
385 -699 590 -1322 531z"/>
      <path d="M5920 8193 c-83 -84 -144 -413 -76 -413 17 0 42 29 51 60 4 14 25 57
47 97 41 77 88 199 88 233 0 24 -34 60 -56 60 -9 0 -33 -17 -54 -37z"/>
      <path d="M6092 7830 c-102 -53 -203 -223 -248 -421 -25 -106 -27 -130 -27
-359 0 -314 18 -416 122 -693 84 -227 139 -320 174 -300 67 37 154 240 176
410 12 89 43 216 79 328 106 322 114 358 115 503 2 177 -25 274 -112 402 -96
143 -177 181 -279 130z"/>
      <path d="M13764 7816 c-3 -8 16 -44 41 -82 126 -183 254 -499 270 -664 3 -36
18 -114 32 -175 26 -110 27 -110 87 -170 100 -99 189 -107 267 -25 155 163 62
461 -248 793 -131 140 -168 173 -302 265 -104 72 -137 85 -147 58z"/>
  </g>
</svg>