<svg width="36" height="36" viewBox="0 0 36 36" fill="none" xmlns="http://www.w3.org/2000/svg">
<path d="M0 18C0 8.05887 8.05887 0 18 0V0C27.9411 0 36 8.05887 36 18V18C36 27.9411 27.9411 36 18 36V36C8.05887 36 0 27.9411 0 18V18Z" fill="#F3F4F6"/>
<path d="M15.425 23.7559C16.8564 24.4902 18.5031 24.6891 20.0682 24.3167C21.6333 23.9444 23.0139 23.0253 23.9613 21.725C24.9087 20.4248 25.3606 18.8289 25.2354 17.225C25.1103 15.6211 24.4164 14.1146 23.2789 12.977C22.1413 11.8395 20.6348 11.1456 19.0309 11.0205C17.427 10.8953 15.8311 11.3472 14.5309 12.2946C13.2306 13.242 12.3115 14.6226 11.9392 16.1877C11.5668 17.7528 11.7657 19.3995 12.5 20.8309L11 25.2559L15.425 23.7559Z" stroke="#4A5565" stroke-width="1.5" stroke-linecap="round" stroke-linejoin="round"/>
</svg>
