<svg width="24" height="24" viewBox="0 0 24 24" fill="none" xmlns="http://www.w3.org/2000/svg">
<mask id="path-1-inside-1_178_30" fill="white">
<path d="M0 6C0 2.68629 2.68629 0 6 0H18C21.3137 0 24 2.68629 24 6V18C24 21.3137 21.3137 24 18 24H6C2.68629 24 0 21.3137 0 18V6Z"/>
</mask>
<path d="M6 0V2H18V0V-2H6V0ZM24 6H22V18H24H26V6H24ZM18 24V22H6V24V26H18V24ZM0 18H2V6H0H-2V18H0ZM6 24V22C3.79086 22 2 20.2091 2 18H0H-2C-2 22.4183 1.58172 26 6 26V24ZM24 18H22C22 20.2091 20.2091 22 18 22V24V26C22.4183 26 26 22.4183 26 18H24ZM18 0V2C20.2091 2 22 3.79086 22 6H24H26C26 1.58172 22.4183 -2 18 -2V0ZM6 0V-2C1.58172 -2 -2 1.58172 -2 6H0H2C2 3.79086 3.79086 2 6 2V0Z" fill="#D1D5DC" mask="url(#path-1-inside-1_178_30)"/>
</svg>
