<svg width="48" height="48" viewBox="0 0 48 48" fill="none" xmlns="http://www.w3.org/2000/svg">
<path d="M0 24C0 10.7452 10.7452 0 24 0C37.2548 0 48 10.7452 48 24C48 37.2548 37.2548 48 24 48C10.7452 48 0 37.2548 0 24Z" fill="#F9FAFB"/>
<path d="M24 32H33" stroke="#4A5565" stroke-width="2" stroke-linecap="round" stroke-linejoin="round"/>
<path d="M28.376 15.622C28.7741 15.2239 29.314 15.0002 29.877 15.0002C30.44 15.0002 30.9799 15.2239 31.378 15.622C31.7761 16.0201 31.9997 16.56 31.9997 17.123C31.9997 17.686 31.7761 18.2259 31.378 18.624L19.368 30.635C19.1301 30.8729 18.836 31.0469 18.513 31.141L15.641 31.979C15.5549 32.0041 15.4637 32.0056 15.3769 31.9833C15.2901 31.9611 15.2108 31.9159 15.1474 31.8525C15.084 31.7892 15.0389 31.7099 15.0166 31.6231C14.9944 31.5362 14.9959 31.445 15.021 31.359L15.859 28.487C15.9532 28.1643 16.1272 27.8706 16.365 27.633L28.376 15.622Z" stroke="#4A5565" stroke-width="2" stroke-linecap="round" stroke-linejoin="round"/>
</svg>
