<svg width="48" height="48" viewBox="0 0 48 48" fill="none" xmlns="http://www.w3.org/2000/svg">
<path d="M0 24C0 10.7452 10.7452 0 24 0C37.2548 0 48 10.7452 48 24C48 37.2548 37.2548 48 24 48C10.7452 48 0 37.2548 0 24Z" fill="#F9FAFB"/>
<path d="M24 34C29.5228 34 34 29.5228 34 24C34 18.4772 29.5228 14 24 14C18.4772 14 14 18.4772 14 24C14 29.5228 18.4772 34 24 34Z" stroke="#4A5565" stroke-width="2" stroke-linecap="round" stroke-linejoin="round"/>
<path d="M21.0898 21.0001C21.3249 20.3317 21.789 19.7682 22.3998 19.4092C23.0106 19.0502 23.7287 18.919 24.427 19.0388C25.1253 19.1586 25.7587 19.5216 26.2149 20.0636C26.6712 20.6056 26.9209 21.2916 26.9198 22.0001C26.9198 24.0001 23.9198 25.0001 23.9198 25.0001" stroke="#4A5565" stroke-width="2" stroke-linecap="round" stroke-linejoin="round"/>
<path d="M24 29H24.01" stroke="#4A5565" stroke-width="2" stroke-linecap="round" stroke-linejoin="round"/>
</svg>
