<svg width="20" height="20" viewBox="0 0 20 20" fill="none" xmlns="http://www.w3.org/2000/svg">
<g clip-path="url(#clip0_161_524)">
<path d="M8.94421 4.22997C10.8854 3.99864 12.8489 4.40899 14.5349 5.39835C16.221 6.3877 17.5369 7.9017 18.2817 9.70914C18.3512 9.89624 18.3512 10.102 18.2817 10.2891C17.9755 11.0316 17.5707 11.7296 17.0784 12.3641" stroke="#99A1AF" stroke-width="1.66667" stroke-linecap="round" stroke-linejoin="round"/>
<path d="M11.7367 11.7983C11.2652 12.2537 10.6336 12.5057 9.97815 12.5C9.32266 12.4943 8.69563 12.2314 8.23211 11.7679C7.76859 11.3043 7.50567 10.6773 7.49997 10.0218C7.49428 9.36632 7.74626 8.73481 8.20166 8.26331" stroke="#99A1AF" stroke-width="1.66667" stroke-linecap="round" stroke-linejoin="round"/>
<path d="M14.5658 14.5825C13.4604 15.2373 12.2271 15.6467 10.9495 15.7829C9.6719 15.919 8.37997 15.7787 7.16137 15.3716C5.94277 14.9644 4.82601 14.2999 3.88686 13.4232C2.94771 12.5464 2.20814 11.4778 1.71835 10.29C1.6489 10.1029 1.6489 9.89712 1.71835 9.71003C2.45721 7.91824 3.75724 6.4144 5.42335 5.42419" stroke="#99A1AF" stroke-width="1.66667" stroke-linecap="round" stroke-linejoin="round"/>
<path d="M1.66663 1.66669L18.3333 18.3334" stroke="#99A1AF" stroke-width="1.66667" stroke-linecap="round" stroke-linejoin="round"/>
</g>
<defs>
<clipPath id="clip0_161_524">
<rect width="20" height="20" fill="white"/>
</clipPath>
</defs>
</svg>
