<svg width="40" height="40" viewBox="0 0 40 40" fill="none" xmlns="http://www.w3.org/2000/svg">
<path d="M26 12H10C7.79086 12 6 13.7909 6 16V26C6 28.2091 7.79086 30 10 30H26C28.2091 30 30 28.2091 30 26V16C30 13.7909 28.2091 12 26 12Z" fill="white" fill-opacity="0.35"/>
<path d="M30 8H14C11.7909 8 10 9.79086 10 12V22C10 24.2091 11.7909 26 14 26H30C32.2091 26 34 24.2091 34 22V12C34 9.79086 32.2091 8 30 8Z" fill="white" fill-opacity="0.85"/>
<path d="M28.75 12H15.25C14.5596 12 14 12.5596 14 13.25C14 13.9404 14.5596 14.5 15.25 14.5H28.75C29.4404 14.5 30 13.9404 30 13.25C30 12.5596 29.4404 12 28.75 12Z" fill="#0064FF" fill-opacity="0.7"/>
<path d="M25 17H15C14.4477 17 14 17.4477 14 18C14 18.5523 14.4477 19 15 19H25C25.5523 19 26 18.5523 26 18C26 17.4477 25.5523 17 25 17Z" fill="#0064FF" fill-opacity="0.35"/>
<path d="M27 21H15C14.4477 21 14 21.4477 14 22C14 22.5523 14.4477 23 15 23H27C27.5523 23 28 22.5523 28 22C28 21.4477 27.5523 21 27 21Z" fill="#0064FF" fill-opacity="0.25"/>
<path d="M28 22.5H33" stroke="white" stroke-width="2" stroke-linecap="round"/>
<path d="M31 20L33.5 22.5L31 25" stroke="white" stroke-width="2" stroke-linecap="round" stroke-linejoin="round"/>
</svg>
