<svg width="40" height="40" viewBox="0 0 40 40" fill="none" xmlns="http://www.w3.org/2000/svg">
<path d="M31 4H9C6.23858 4 4 6.23858 4 9V31C4 33.7614 6.23858 36 9 36H31C33.7614 36 36 33.7614 36 31V9C36 6.23858 33.7614 4 31 4Z" fill="white" fill-opacity="0.85"/>
<path d="M8 28H36" stroke="#0064FF" stroke-opacity="0.12"/>
<path d="M8 22H36" stroke="#0064FF" stroke-opacity="0.12"/>
<path d="M12.5 22H10.5C9.67157 22 9 22.6716 9 23.5V26.5C9 27.3284 9.67157 28 10.5 28H12.5C13.3284 28 14 27.3284 14 26.5V23.5C14 22.6716 13.3284 22 12.5 22Z" fill="#0064FF" fill-opacity="0.3"/>
<path d="M20.5 16H18.5C17.6716 16 17 16.6716 17 17.5V26.5C17 27.3284 17.6716 28 18.5 28H20.5C21.3284 28 22 27.3284 22 26.5V17.5C22 16.6716 21.3284 16 20.5 16Z" fill="#0064FF" fill-opacity="0.55"/>
<path d="M28.5 10H26.5C25.6716 10 25 10.6716 25 11.5V26.5C25 27.3284 25.6716 28 26.5 28H28.5C29.3284 28 30 27.3284 30 26.5V11.5C30 10.6716 29.3284 10 28.5 10Z" fill="#0064FF" fill-opacity="0.85"/>
<path d="M9 20C13 14 17 18 21 13C25 8 29 11 35 9" stroke="#F04452" stroke-width="2" stroke-linecap="round" stroke-linejoin="round"/>
<path d="M35 11.5C36.3807 11.5 37.5 10.3807 37.5 9C37.5 7.61929 36.3807 6.5 35 6.5C33.6193 6.5 32.5 7.61929 32.5 9C32.5 10.3807 33.6193 11.5 35 11.5Z" fill="#F04452"/>
</svg>
