<svg width="40" height="40" viewBox="0 0 40 40" fill="none" xmlns="http://www.w3.org/2000/svg">
<path d="M28 5H10C7.79086 5 6 6.79086 6 9V31C6 33.2091 7.79086 35 10 35H28C30.2091 35 32 33.2091 32 31V9C32 6.79086 30.2091 5 28 5Z" fill="white" fill-opacity="0.85"/>
<path d="M27.75 12H12.25C11.5596 12 11 12.5596 11 13.25C11 13.9404 11.5596 14.5 12.25 14.5H27.75C28.4404 14.5 29 13.9404 29 13.25C29 12.5596 28.4404 12 27.75 12Z" fill="#0064FF" fill-opacity="0.5"/>
<path d="M23.75 18H12.25C11.5596 18 11 18.5596 11 19.25C11 19.9404 11.5596 20.5 12.25 20.5H23.75C24.4404 20.5 25 19.9404 25 19.25C25 18.5596 24.4404 18 23.75 18Z" fill="#0064FF" fill-opacity="0.35"/>
<path d="M25.75 24H12.25C11.5596 24 11 24.5596 11 25.25C11 25.9404 11.5596 26.5 12.25 26.5H25.75C26.4404 26.5 27 25.9404 27 25.25C27 24.5596 26.4404 24 25.75 24Z" fill="#0064FF" fill-opacity="0.25"/>
<path d="M30 17C33.866 17 37 13.866 37 10C37 6.13401 33.866 3 30 3C26.134 3 23 6.13401 23 10C23 13.866 26.134 17 30 17Z" fill="#0064FF"/>
<path d="M30 6.5L31.1 9.1H34L31.8 10.9L32.6 13.5L30 12L27.4 13.5L28.2 10.9L26 9.1H28.9L30 6.5Z" fill="white"/>
</svg>
