<svg width="20" height="20" viewBox="0 0 20 20" fill="none" xmlns="http://www.w3.org/2000/svg">
<g clip-path="url(#clip0_387_1923)">
<path d="M10 2L3 5V10C3 14.25 6.03 18.2 10 19.5C13.97 18.2 17 14.25 17 10V5L10 2Z" stroke="#6B7280" stroke-width="1.5" stroke-linejoin="round"/>
<path d="M11.5 11H8.5C7.94772 11 7.5 11.4477 7.5 12V14.5C7.5 15.0523 7.94772 15.5 8.5 15.5H11.5C12.0523 15.5 12.5 15.0523 12.5 14.5V12C12.5 11.4477 12.0523 11 11.5 11Z" stroke="#6B7280" stroke-width="1.3"/>
<path d="M8.5 11V9.5C8.5 8.4 9.17 7.5 10 7.5C10.83 7.5 11.5 8.4 11.5 9.5V11" stroke="#6B7280" stroke-width="1.3" stroke-linecap="round"/>
</g>
<defs>
<clipPath id="clip0_387_1923">
<rect width="20" height="20" fill="white"/>
</clipPath>
</defs>
</svg>
