<svg width="64" height="64" viewBox="0 0 64 64" fill="none" xmlns="http://www.w3.org/2000/svg">
<path d="M0 32C0 14.3269 14.3269 0 32 0C49.6731 0 64 14.3269 64 32C64 49.6731 49.6731 64 32 64C14.3269 64 0 49.6731 0 32Z" fill="#0064FF" fill-opacity="0.1"/>
<path d="M41.3332 44V41.3333C41.3332 39.9188 40.7713 38.5623 39.7711 37.5621C38.7709 36.5619 37.4143 36 35.9998 36H27.9998C26.5853 36 25.2288 36.5619 24.2286 37.5621C23.2284 38.5623 22.6665 39.9188 22.6665 41.3333V44" stroke="#0064FF" stroke-width="2.66667" stroke-linecap="round" stroke-linejoin="round"/>
<path d="M31.9998 30.6667C34.9454 30.6667 37.3332 28.2789 37.3332 25.3333C37.3332 22.3878 34.9454 20 31.9998 20C29.0543 20 26.6665 22.3878 26.6665 25.3333C26.6665 28.2789 29.0543 30.6667 31.9998 30.6667Z" stroke="#0064FF" stroke-width="2.66667" stroke-linecap="round" stroke-linejoin="round"/>
</svg>
