<svg width="20" height="20" viewBox="0 0 20 20" fill="none" xmlns="http://www.w3.org/2000/svg">
<path d="M0 10C0 4.47715 4.47715 0 10 0C15.5228 0 20 4.47715 20 10C20 15.5228 15.5228 20 10 20C4.47715 20 0 15.5228 0 10Z" fill="#FE9A00"/>
<path d="M10.9403 5.27273L10.7741 11.3835H9.21449L9.04403 5.27273H10.9403ZM9.99432 14.1108C9.71307 14.1108 9.47159 14.0114 9.26989 13.8125C9.06818 13.6108 8.96875 13.3693 8.97159 13.0881C8.96875 12.8097 9.06818 12.571 9.26989 12.3722C9.47159 12.1733 9.71307 12.0739 9.99432 12.0739C10.2642 12.0739 10.5014 12.1733 10.706 12.3722C10.9105 12.571 11.0142 12.8097 11.017 13.0881C11.0142 13.2756 10.9645 13.4474 10.8679 13.6037C10.7741 13.7571 10.6506 13.8807 10.4972 13.9744C10.3438 14.0653 10.1761 14.1108 9.99432 14.1108Z" fill="white"/>
</svg>
