<svg width="20" height="20" viewBox="0 0 20 20" fill="none" xmlns="http://www.w3.org/2000/svg">
<g clip-path="url(#clip0_82_831)">
<path d="M18.3334 14.1V16.6C18.3344 16.8321 18.2868 17.0618 18.1939 17.2745C18.1009 17.4871 17.9645 17.678 17.7935 17.8349C17.6225 17.9918 17.4206 18.1112 17.2007 18.1856C16.9809 18.26 16.7479 18.2876 16.5168 18.2667C13.9525 17.988 11.4893 17.1118 9.32511 15.7083C7.31163 14.4289 5.60455 12.7218 4.32511 10.7083C2.91676 8.53435 2.04031 6.05917 1.76677 3.48334C1.74595 3.2529 1.77334 3.02064 1.84719 2.80136C1.92105 2.58208 2.03975 2.38058 2.19575 2.20969C2.35174 2.0388 2.54161 1.90227 2.75327 1.80878C2.96492 1.71529 3.19372 1.66689 3.42511 1.66668H5.92511C6.32953 1.6627 6.7216 1.80591 7.02824 2.06962C7.33488 2.33333 7.53517 2.69955 7.59177 3.10001C7.69729 3.90006 7.89298 4.68562 8.17511 5.44168C8.28723 5.73995 8.31149 6.0641 8.24503 6.37574C8.17857 6.68738 8.02416 6.97344 7.80011 7.20001L6.74177 8.25834C7.92807 10.3446 9.65549 12.072 11.7418 13.2583L12.8001 12.2C13.0267 11.976 13.3127 11.8216 13.6244 11.7551C13.936 11.6886 14.2602 11.7129 14.5584 11.825C15.3145 12.1071 16.1001 12.3028 16.9001 12.4083C17.3049 12.4655 17.6746 12.6693 17.9389 12.9813C18.2032 13.2932 18.3436 13.6913 18.3334 14.1Z" stroke="#99A1AF" stroke-width="1.66667" stroke-linecap="round" stroke-linejoin="round"/>
</g>
<defs>
<clipPath id="clip0_82_831">
<rect width="20" height="20" fill="white"/>
</clipPath>
</defs>
</svg>
